<mxfile host="app.diagrams.net" modified="2024-05-18T19:21:27.879Z" agent="Mozilla/5.0 (Windows NT 10.0; Win64; x64; rv:126.0) Gecko/20100101 Firefox/126.0" etag="aQkyQkqCa7aVHXGUqAfF" version="24.2.3" type="device" pages="7">
  <diagram id="ZviDnewObpGiFVqPdqel" name="Keywords">
    <mxGraphModel dx="1834" dy="1194" grid="1" gridSize="10" guides="1" tooltips="1" connect="1" arrows="1" fold="1" page="0" pageScale="1" pageWidth="850" pageHeight="1100" math="0" shadow="0">
      <root>
        <mxCell id="0" />
        <mxCell id="1" parent="0" />
        <mxCell id="VR-OjBBF8Hm6MfclyQEk-1" value="&lt;ul style=&quot;font-size: 18px;&quot;&gt;&lt;li style=&quot;font-size: 18px;&quot;&gt;Time spent&lt;br&gt;&lt;/li&gt;&lt;li style=&quot;font-size: 18px;&quot;&gt;Day&lt;br&gt;&lt;/li&gt;&lt;li style=&quot;font-size: 18px;&quot;&gt;Week&lt;br&gt;&lt;/li&gt;&lt;li style=&quot;font-size: 18px;&quot;&gt;Month&lt;/li&gt;&lt;li style=&quot;font-size: 18px;&quot;&gt;Year&lt;/li&gt;&lt;li style=&quot;font-size: 18px;&quot;&gt;Average (over time)&lt;/li&gt;&lt;li style=&quot;font-size: 18px;&quot;&gt;Mean&lt;/li&gt;&lt;li style=&quot;font-size: 18px;&quot;&gt;Median&lt;/li&gt;&lt;li style=&quot;font-size: 18px;&quot;&gt;User defined Label&lt;br&gt;&lt;/li&gt;&lt;/ul&gt;" style="text;strokeColor=none;fillColor=none;html=1;whiteSpace=wrap;verticalAlign=middle;overflow=hidden;fontSize=18;align=left;labelBackgroundColor=none;fontColor=#393C56;" parent="1" vertex="1">
          <mxGeometry x="-120" y="-40" width="200" height="400" as="geometry" />
        </mxCell>
        <mxCell id="VR-OjBBF8Hm6MfclyQEk-2" value="&lt;ul style=&quot;font-size: 18px;&quot;&gt;&lt;li style=&quot;font-size: 18px;&quot;&gt;Long Tones&lt;/li&gt;&lt;li style=&quot;font-size: 18px;&quot;&gt;Articulation&lt;/li&gt;&lt;li style=&quot;font-size: 18px;&quot;&gt;Embouchure&lt;/li&gt;&lt;li style=&quot;font-size: 18px;&quot;&gt;Fingering&lt;/li&gt;&lt;li style=&quot;font-size: 18px;&quot;&gt;Altissimo&lt;/li&gt;&lt;li style=&quot;font-size: 18px;&quot;&gt;Bending Notes&lt;br&gt;&lt;/li&gt;&lt;li style=&quot;font-size: 18px;&quot;&gt;Vibrato&lt;/li&gt;&lt;li style=&quot;font-size: 18px;&quot;&gt;Slap-tonguing&lt;/li&gt;&lt;li style=&quot;font-size: 18px;&quot;&gt;Double-tonguing&lt;/li&gt;&lt;/ul&gt;" style="text;strokeColor=none;fillColor=none;html=1;whiteSpace=wrap;verticalAlign=middle;overflow=hidden;fontSize=18;align=left;labelBackgroundColor=none;fontColor=#393C56;" parent="1" vertex="1">
          <mxGeometry x="720" y="-40" width="200" height="400" as="geometry" />
        </mxCell>
        <mxCell id="VR-OjBBF8Hm6MfclyQEk-3" value="&lt;ul style=&quot;font-size: 18px;&quot;&gt;&lt;li style=&quot;font-size: 18px;&quot;&gt;Fingering/Fretting accuracy&lt;/li&gt;&lt;li style=&quot;font-size: 18px;&quot;&gt;Speed&lt;/li&gt;&lt;li style=&quot;font-size: 18px;&quot;&gt;Chord composition&lt;/li&gt;&lt;li style=&quot;font-size: 18px;&quot;&gt;Vibrato&lt;/li&gt;&lt;li style=&quot;font-size: 18px;&quot;&gt;Setting amplifier&lt;/li&gt;&lt;li style=&quot;font-size: 18px;&quot;&gt;Bar chords&lt;/li&gt;&lt;li style=&quot;font-size: 18px;&quot;&gt;Bending Notes&lt;br&gt;&lt;/li&gt;&lt;/ul&gt;" style="text;strokeColor=none;fillColor=none;html=1;whiteSpace=wrap;verticalAlign=middle;overflow=hidden;fontSize=18;align=left;labelBackgroundColor=none;fontColor=#393C56;" parent="1" vertex="1">
          <mxGeometry x="440" y="-40" width="200" height="400" as="geometry" />
        </mxCell>
        <mxCell id="VR-OjBBF8Hm6MfclyQEk-8" value="General Keywords" style="rounded=0;whiteSpace=wrap;html=1;fontSize=18;labelBackgroundColor=none;fillColor=#F2CC8F;strokeColor=#E07A5F;fontColor=#393C56;" parent="1" vertex="1">
          <mxGeometry x="-80" y="-120" width="120" height="80" as="geometry" />
        </mxCell>
        <mxCell id="VR-OjBBF8Hm6MfclyQEk-9" value="Music Fundamental Keywords" style="rounded=0;whiteSpace=wrap;html=1;fontSize=18;labelBackgroundColor=none;fillColor=#F2CC8F;strokeColor=#E07A5F;fontColor=#393C56;" parent="1" vertex="1">
          <mxGeometry x="200" y="-120" width="120" height="80" as="geometry" />
        </mxCell>
        <mxCell id="VR-OjBBF8Hm6MfclyQEk-11" value="Guitar Keywords" style="rounded=0;whiteSpace=wrap;html=1;fontSize=18;labelBackgroundColor=none;fillColor=#F2CC8F;strokeColor=#E07A5F;fontColor=#393C56;" parent="1" vertex="1">
          <mxGeometry x="480" y="-120" width="120" height="80" as="geometry" />
        </mxCell>
        <mxCell id="VR-OjBBF8Hm6MfclyQEk-12" value="Saxophone Keywords" style="rounded=0;whiteSpace=wrap;html=1;fontSize=18;labelBackgroundColor=none;fillColor=#F2CC8F;strokeColor=#E07A5F;fontColor=#393C56;" parent="1" vertex="1">
          <mxGeometry x="760" y="-120" width="120" height="80" as="geometry" />
        </mxCell>
        <mxCell id="VR-OjBBF8Hm6MfclyQEk-14" value="&lt;ul style=&quot;font-size: 18px;&quot;&gt;&lt;li style=&quot;font-size: 18px;&quot;&gt;Rhythm&lt;/li&gt;&lt;li style=&quot;font-size: 18px;&quot;&gt;Reading sheet music&lt;/li&gt;&lt;li style=&quot;font-size: 18px;&quot;&gt;Ear training&lt;/li&gt;&lt;li style=&quot;font-size: 18px;&quot;&gt;Scales&lt;/li&gt;&lt;li style=&quot;font-size: 18px;&quot;&gt;Improvising&lt;/li&gt;&lt;li style=&quot;font-size: 18px;&quot;&gt;Composition&lt;/li&gt;&lt;li style=&quot;font-size: 18px;&quot;&gt;Phrasing&lt;br&gt;&lt;/li&gt;&lt;/ul&gt;" style="text;strokeColor=none;fillColor=none;html=1;whiteSpace=wrap;verticalAlign=middle;overflow=hidden;fontSize=18;align=left;labelBackgroundColor=none;fontColor=#393C56;" parent="1" vertex="1">
          <mxGeometry x="160" y="-40" width="200" height="400" as="geometry" />
        </mxCell>
      </root>
    </mxGraphModel>
  </diagram>
  <diagram id="d_PKeW_5sVOhmi4q_biC" name="Create Action program flow">
    <mxGraphModel dx="1366" dy="756" grid="1" gridSize="10" guides="1" tooltips="1" connect="1" arrows="1" fold="1" page="0" pageScale="1" pageWidth="850" pageHeight="1100" math="0" shadow="0">
      <root>
        <mxCell id="0" />
        <mxCell id="1" parent="0" />
        <mxCell id="Nql5xTlVmH96YAoPqvpn-3" value="" style="edgeStyle=orthogonalEdgeStyle;rounded=0;orthogonalLoop=1;jettySize=auto;html=1;labelBackgroundColor=none;strokeColor=#E07A5F;fontColor=default;" edge="1" parent="1" source="Nql5xTlVmH96YAoPqvpn-1" target="Nql5xTlVmH96YAoPqvpn-2">
          <mxGeometry relative="1" as="geometry" />
        </mxCell>
        <mxCell id="Nql5xTlVmH96YAoPqvpn-1" value="Input into console" style="rounded=0;whiteSpace=wrap;html=1;labelBackgroundColor=none;fillColor=#F2CC8F;strokeColor=#E07A5F;fontColor=#393C56;" vertex="1" parent="1">
          <mxGeometry x="360" y="140" width="120" height="60" as="geometry" />
        </mxCell>
        <mxCell id="Nql5xTlVmH96YAoPqvpn-5" value="" style="edgeStyle=orthogonalEdgeStyle;rounded=0;orthogonalLoop=1;jettySize=auto;html=1;labelBackgroundColor=none;strokeColor=#E07A5F;fontColor=default;" edge="1" parent="1" source="Nql5xTlVmH96YAoPqvpn-2" target="Nql5xTlVmH96YAoPqvpn-4">
          <mxGeometry relative="1" as="geometry" />
        </mxCell>
        <mxCell id="Nql5xTlVmH96YAoPqvpn-2" value="Create a command" style="whiteSpace=wrap;html=1;rounded=0;labelBackgroundColor=none;fillColor=#F2CC8F;strokeColor=#E07A5F;fontColor=#393C56;" vertex="1" parent="1">
          <mxGeometry x="560" y="140" width="120" height="60" as="geometry" />
        </mxCell>
        <mxCell id="Nql5xTlVmH96YAoPqvpn-7" value="" style="edgeStyle=orthogonalEdgeStyle;rounded=0;orthogonalLoop=1;jettySize=auto;html=1;labelBackgroundColor=none;strokeColor=#E07A5F;fontColor=default;" edge="1" parent="1" source="Nql5xTlVmH96YAoPqvpn-4" target="Nql5xTlVmH96YAoPqvpn-6">
          <mxGeometry relative="1" as="geometry" />
        </mxCell>
        <mxCell id="Nql5xTlVmH96YAoPqvpn-4" value="&lt;div&gt;CommandParser&lt;/div&gt;&lt;div&gt;.parseCommand&lt;/div&gt;" style="whiteSpace=wrap;html=1;rounded=0;labelBackgroundColor=none;fillColor=#F2CC8F;strokeColor=#E07A5F;fontColor=#393C56;" vertex="1" parent="1">
          <mxGeometry x="760" y="140" width="120" height="60" as="geometry" />
        </mxCell>
        <mxCell id="Nql5xTlVmH96YAoPqvpn-9" value="" style="edgeStyle=orthogonalEdgeStyle;rounded=0;orthogonalLoop=1;jettySize=auto;html=1;labelBackgroundColor=none;strokeColor=#E07A5F;fontColor=default;" edge="1" parent="1" source="Nql5xTlVmH96YAoPqvpn-6" target="Nql5xTlVmH96YAoPqvpn-8">
          <mxGeometry relative="1" as="geometry" />
        </mxCell>
        <mxCell id="Nql5xTlVmH96YAoPqvpn-6" value="&lt;div&gt;&quot;Create&quot; &lt;br&gt;&lt;/div&gt;&lt;div&gt;Action&lt;br&gt;&lt;/div&gt;" style="whiteSpace=wrap;html=1;rounded=0;labelBackgroundColor=none;fillColor=#F2CC8F;strokeColor=#E07A5F;fontColor=#393C56;" vertex="1" parent="1">
          <mxGeometry x="960" y="140" width="120" height="60" as="geometry" />
        </mxCell>
        <mxCell id="Nql5xTlVmH96YAoPqvpn-11" value="" style="edgeStyle=orthogonalEdgeStyle;rounded=0;orthogonalLoop=1;jettySize=auto;html=1;labelBackgroundColor=none;strokeColor=#E07A5F;fontColor=default;" edge="1" parent="1" source="Nql5xTlVmH96YAoPqvpn-8" target="Nql5xTlVmH96YAoPqvpn-10">
          <mxGeometry relative="1" as="geometry" />
        </mxCell>
        <mxCell id="Nql5xTlVmH96YAoPqvpn-8" value="Print example arguments" style="whiteSpace=wrap;html=1;rounded=0;labelBackgroundColor=none;fillColor=#F2CC8F;strokeColor=#E07A5F;fontColor=#393C56;" vertex="1" parent="1">
          <mxGeometry x="960" y="280" width="120" height="60" as="geometry" />
        </mxCell>
        <mxCell id="Nql5xTlVmH96YAoPqvpn-13" value="" style="edgeStyle=orthogonalEdgeStyle;rounded=0;orthogonalLoop=1;jettySize=auto;html=1;labelBackgroundColor=none;strokeColor=#E07A5F;fontColor=default;" edge="1" parent="1" source="Nql5xTlVmH96YAoPqvpn-10" target="Nql5xTlVmH96YAoPqvpn-12">
          <mxGeometry relative="1" as="geometry" />
        </mxCell>
        <mxCell id="Nql5xTlVmH96YAoPqvpn-10" value="&lt;div&gt;CommandParser&lt;/div&gt;&lt;div&gt;.parseArguments&lt;br&gt;&lt;/div&gt;" style="whiteSpace=wrap;html=1;rounded=0;labelBackgroundColor=none;fillColor=#F2CC8F;strokeColor=#E07A5F;fontColor=#393C56;" vertex="1" parent="1">
          <mxGeometry x="760" y="280" width="120" height="60" as="geometry" />
        </mxCell>
        <mxCell id="Nql5xTlVmH96YAoPqvpn-12" value="&lt;div&gt;WriteData&lt;/div&gt;&lt;div&gt;.addSession&lt;br&gt;&lt;/div&gt;" style="whiteSpace=wrap;html=1;rounded=0;labelBackgroundColor=none;fillColor=#F2CC8F;strokeColor=#E07A5F;fontColor=#393C56;" vertex="1" parent="1">
          <mxGeometry x="560" y="280" width="120" height="60" as="geometry" />
        </mxCell>
        <mxCell id="Nql5xTlVmH96YAoPqvpn-17" value="" style="edgeStyle=orthogonalEdgeStyle;rounded=0;orthogonalLoop=1;jettySize=auto;html=1;labelBackgroundColor=none;strokeColor=#E07A5F;fontColor=default;" edge="1" parent="1" target="Nql5xTlVmH96YAoPqvpn-16">
          <mxGeometry relative="1" as="geometry">
            <mxPoint x="620" y="340" as="sourcePoint" />
          </mxGeometry>
        </mxCell>
        <mxCell id="Nql5xTlVmH96YAoPqvpn-19" value="" style="edgeStyle=orthogonalEdgeStyle;rounded=0;orthogonalLoop=1;jettySize=auto;html=1;labelBackgroundColor=none;strokeColor=#E07A5F;fontColor=default;startArrow=classic;startFill=1;endArrow=none;endFill=0;" edge="1" parent="1" target="Nql5xTlVmH96YAoPqvpn-18">
          <mxGeometry relative="1" as="geometry">
            <mxPoint x="560" y="310" as="sourcePoint" />
          </mxGeometry>
        </mxCell>
        <mxCell id="hBY9I455G6JTwiRbEorS-2" value="" style="edgeStyle=orthogonalEdgeStyle;rounded=0;orthogonalLoop=1;jettySize=auto;html=1;strokeColor=#E07A5F;fontColor=#393C56;fillColor=#F2CC8F;" edge="1" parent="1" source="Nql5xTlVmH96YAoPqvpn-16" target="hBY9I455G6JTwiRbEorS-1">
          <mxGeometry relative="1" as="geometry" />
        </mxCell>
        <mxCell id="Nql5xTlVmH96YAoPqvpn-16" value="OutputFormatter" style="whiteSpace=wrap;html=1;rounded=0;labelBackgroundColor=none;fillColor=#F2CC8F;strokeColor=#E07A5F;fontColor=#393C56;" vertex="1" parent="1">
          <mxGeometry x="560" y="420" width="120" height="60" as="geometry" />
        </mxCell>
        <mxCell id="Nql5xTlVmH96YAoPqvpn-18" value="&lt;div&gt;FileHandler&lt;/div&gt;&lt;div&gt;.loadFile&lt;br&gt;&lt;/div&gt;" style="whiteSpace=wrap;html=1;rounded=0;labelBackgroundColor=none;fillColor=#F2CC8F;strokeColor=#E07A5F;fontColor=#393C56;" vertex="1" parent="1">
          <mxGeometry x="360" y="280" width="120" height="60" as="geometry" />
        </mxCell>
        <mxCell id="hBY9I455G6JTwiRbEorS-1" value="Print output to console" style="whiteSpace=wrap;html=1;fillColor=#F2CC8F;strokeColor=#E07A5F;fontColor=#393C56;rounded=0;labelBackgroundColor=none;" vertex="1" parent="1">
          <mxGeometry x="560" y="560" width="120" height="60" as="geometry" />
        </mxCell>
      </root>
    </mxGraphModel>
  </diagram>
  <diagram id="dDPrTTUjTwGCLMg7VMLA" name="Delete Action program flow">
    <mxGraphModel dx="1434" dy="794" grid="1" gridSize="10" guides="1" tooltips="1" connect="1" arrows="1" fold="1" page="1" pageScale="1" pageWidth="1100" pageHeight="850" math="0" shadow="0">
      <root>
        <mxCell id="0" />
        <mxCell id="1" parent="0" />
        <mxCell id="DCzzPW3xTVuz4FSlA21T-1" value="" style="edgeStyle=orthogonalEdgeStyle;rounded=0;orthogonalLoop=1;jettySize=auto;html=1;labelBackgroundColor=none;strokeColor=#E07A5F;fontColor=default;" edge="1" parent="1" source="DCzzPW3xTVuz4FSlA21T-2" target="DCzzPW3xTVuz4FSlA21T-4">
          <mxGeometry relative="1" as="geometry" />
        </mxCell>
        <mxCell id="DCzzPW3xTVuz4FSlA21T-2" value="Input into console" style="rounded=0;whiteSpace=wrap;html=1;labelBackgroundColor=none;fillColor=#F2CC8F;strokeColor=#E07A5F;fontColor=#393C56;" vertex="1" parent="1">
          <mxGeometry x="190" y="100" width="120" height="60" as="geometry" />
        </mxCell>
        <mxCell id="DCzzPW3xTVuz4FSlA21T-3" value="" style="edgeStyle=orthogonalEdgeStyle;rounded=0;orthogonalLoop=1;jettySize=auto;html=1;labelBackgroundColor=none;strokeColor=#E07A5F;fontColor=default;" edge="1" parent="1" source="DCzzPW3xTVuz4FSlA21T-4" target="DCzzPW3xTVuz4FSlA21T-6">
          <mxGeometry relative="1" as="geometry" />
        </mxCell>
        <mxCell id="DCzzPW3xTVuz4FSlA21T-4" value="Create Command Object" style="whiteSpace=wrap;html=1;rounded=0;labelBackgroundColor=none;fillColor=#F2CC8F;strokeColor=#E07A5F;fontColor=#393C56;" vertex="1" parent="1">
          <mxGeometry x="390" y="100" width="120" height="60" as="geometry" />
        </mxCell>
        <mxCell id="DCzzPW3xTVuz4FSlA21T-5" value="" style="edgeStyle=orthogonalEdgeStyle;rounded=0;orthogonalLoop=1;jettySize=auto;html=1;labelBackgroundColor=none;strokeColor=#E07A5F;fontColor=default;" edge="1" parent="1" source="DCzzPW3xTVuz4FSlA21T-6" target="DCzzPW3xTVuz4FSlA21T-8">
          <mxGeometry relative="1" as="geometry" />
        </mxCell>
        <mxCell id="DCzzPW3xTVuz4FSlA21T-6" value="&lt;div&gt;CommandParser&lt;/div&gt;&lt;div&gt;.parseCommand&lt;/div&gt;" style="whiteSpace=wrap;html=1;rounded=0;labelBackgroundColor=none;fillColor=#F2CC8F;strokeColor=#E07A5F;fontColor=#393C56;" vertex="1" parent="1">
          <mxGeometry x="590" y="100" width="120" height="60" as="geometry" />
        </mxCell>
        <mxCell id="DCzzPW3xTVuz4FSlA21T-7" value="" style="edgeStyle=orthogonalEdgeStyle;rounded=0;orthogonalLoop=1;jettySize=auto;html=1;labelBackgroundColor=none;strokeColor=#E07A5F;fontColor=default;" edge="1" parent="1" source="DCzzPW3xTVuz4FSlA21T-8" target="DCzzPW3xTVuz4FSlA21T-10">
          <mxGeometry relative="1" as="geometry" />
        </mxCell>
        <mxCell id="DCzzPW3xTVuz4FSlA21T-8" value="&lt;div&gt;&quot;Delete&quot; &lt;br&gt;&lt;/div&gt;&lt;div&gt;Action&lt;br&gt;&lt;/div&gt;" style="whiteSpace=wrap;html=1;rounded=0;labelBackgroundColor=none;fillColor=#F2CC8F;strokeColor=#E07A5F;fontColor=#393C56;" vertex="1" parent="1">
          <mxGeometry x="790" y="100" width="120" height="60" as="geometry" />
        </mxCell>
        <mxCell id="DCzzPW3xTVuz4FSlA21T-9" value="" style="edgeStyle=orthogonalEdgeStyle;rounded=0;orthogonalLoop=1;jettySize=auto;html=1;labelBackgroundColor=none;strokeColor=#E07A5F;fontColor=default;" edge="1" parent="1" source="DCzzPW3xTVuz4FSlA21T-10" target="DCzzPW3xTVuz4FSlA21T-12">
          <mxGeometry relative="1" as="geometry" />
        </mxCell>
        <mxCell id="DCzzPW3xTVuz4FSlA21T-10" value="Prompt for sessionID" style="whiteSpace=wrap;html=1;rounded=0;labelBackgroundColor=none;fillColor=#F2CC8F;strokeColor=#E07A5F;fontColor=#393C56;" vertex="1" parent="1">
          <mxGeometry x="790" y="240" width="120" height="60" as="geometry" />
        </mxCell>
        <mxCell id="DCzzPW3xTVuz4FSlA21T-11" value="" style="edgeStyle=orthogonalEdgeStyle;rounded=0;orthogonalLoop=1;jettySize=auto;html=1;labelBackgroundColor=none;strokeColor=#E07A5F;fontColor=default;" edge="1" parent="1" source="DCzzPW3xTVuz4FSlA21T-12" target="DCzzPW3xTVuz4FSlA21T-13">
          <mxGeometry relative="1" as="geometry" />
        </mxCell>
        <mxCell id="DCzzPW3xTVuz4FSlA21T-12" value="&lt;div&gt;CommandParser&lt;/div&gt;&lt;div&gt;.parseArguments&lt;br&gt;&lt;/div&gt;" style="whiteSpace=wrap;html=1;rounded=0;labelBackgroundColor=none;fillColor=#F2CC8F;strokeColor=#E07A5F;fontColor=#393C56;" vertex="1" parent="1">
          <mxGeometry x="590" y="240" width="120" height="60" as="geometry" />
        </mxCell>
        <mxCell id="DCzzPW3xTVuz4FSlA21T-13" value="&lt;div&gt;ReadData&lt;/div&gt;.getSessionById" style="whiteSpace=wrap;html=1;rounded=0;labelBackgroundColor=none;fillColor=#F2CC8F;strokeColor=#E07A5F;fontColor=#393C56;" vertex="1" parent="1">
          <mxGeometry x="390" y="240" width="120" height="60" as="geometry" />
        </mxCell>
        <mxCell id="DCzzPW3xTVuz4FSlA21T-14" value="" style="edgeStyle=orthogonalEdgeStyle;rounded=0;orthogonalLoop=1;jettySize=auto;html=1;labelBackgroundColor=none;strokeColor=#E07A5F;fontColor=default;" edge="1" parent="1" target="DCzzPW3xTVuz4FSlA21T-17">
          <mxGeometry relative="1" as="geometry">
            <mxPoint x="450" y="300" as="sourcePoint" />
          </mxGeometry>
        </mxCell>
        <mxCell id="DCzzPW3xTVuz4FSlA21T-15" value="" style="edgeStyle=orthogonalEdgeStyle;rounded=0;orthogonalLoop=1;jettySize=auto;html=1;labelBackgroundColor=none;strokeColor=#E07A5F;fontColor=default;startArrow=classic;startFill=1;endArrow=none;endFill=0;" edge="1" parent="1" target="DCzzPW3xTVuz4FSlA21T-18">
          <mxGeometry relative="1" as="geometry">
            <mxPoint x="390" y="270" as="sourcePoint" />
          </mxGeometry>
        </mxCell>
        <mxCell id="DCzzPW3xTVuz4FSlA21T-16" value="" style="edgeStyle=orthogonalEdgeStyle;rounded=0;orthogonalLoop=1;jettySize=auto;html=1;strokeColor=#E07A5F;fontColor=#393C56;fillColor=#F2CC8F;" edge="1" parent="1" source="DCzzPW3xTVuz4FSlA21T-17" target="DCzzPW3xTVuz4FSlA21T-19">
          <mxGeometry relative="1" as="geometry" />
        </mxCell>
        <mxCell id="DCzzPW3xTVuz4FSlA21T-21" value="" style="edgeStyle=orthogonalEdgeStyle;rounded=0;orthogonalLoop=1;jettySize=auto;html=1;strokeColor=#E07A5F;fontColor=#393C56;fillColor=#F2CC8F;" edge="1" parent="1" source="DCzzPW3xTVuz4FSlA21T-17" target="DCzzPW3xTVuz4FSlA21T-20">
          <mxGeometry relative="1" as="geometry" />
        </mxCell>
        <mxCell id="DCzzPW3xTVuz4FSlA21T-17" value="&lt;div&gt;Confirm Delete&lt;/div&gt;&lt;div&gt;(yes or no)&lt;br&gt;&lt;/div&gt;" style="whiteSpace=wrap;html=1;rounded=0;labelBackgroundColor=none;fillColor=#F2CC8F;strokeColor=#E07A5F;fontColor=#393C56;" vertex="1" parent="1">
          <mxGeometry x="390" y="380" width="120" height="60" as="geometry" />
        </mxCell>
        <mxCell id="DCzzPW3xTVuz4FSlA21T-18" value="&lt;div&gt;FileHandler&lt;/div&gt;&lt;div&gt;.loadFile&lt;br&gt;&lt;/div&gt;" style="whiteSpace=wrap;html=1;rounded=0;labelBackgroundColor=none;fillColor=#F2CC8F;strokeColor=#E07A5F;fontColor=#393C56;" vertex="1" parent="1">
          <mxGeometry x="190" y="240" width="120" height="60" as="geometry" />
        </mxCell>
        <mxCell id="DCzzPW3xTVuz4FSlA21T-19" value="Print output to console" style="whiteSpace=wrap;html=1;fillColor=#F2CC8F;strokeColor=#E07A5F;fontColor=#393C56;rounded=0;labelBackgroundColor=none;" vertex="1" parent="1">
          <mxGeometry x="390" y="520" width="120" height="60" as="geometry" />
        </mxCell>
        <mxCell id="DCzzPW3xTVuz4FSlA21T-20" value="WriteData.remove" style="whiteSpace=wrap;html=1;fillColor=#F2CC8F;strokeColor=#E07A5F;fontColor=#393C56;rounded=0;labelBackgroundColor=none;" vertex="1" parent="1">
          <mxGeometry x="190" y="380" width="120" height="60" as="geometry" />
        </mxCell>
      </root>
    </mxGraphModel>
  </diagram>
  <diagram id="PqF1wceyc3CflaCaYKSF" name="Edit Action program flow">
    <mxGraphModel dx="1434" dy="794" grid="1" gridSize="10" guides="1" tooltips="1" connect="1" arrows="1" fold="1" page="1" pageScale="1" pageWidth="1100" pageHeight="850" math="0" shadow="0">
      <root>
        <mxCell id="0" />
        <mxCell id="1" parent="0" />
        <mxCell id="RW-UJUDKQ9CjGkoTU3uq-1" value="" style="edgeStyle=orthogonalEdgeStyle;rounded=0;orthogonalLoop=1;jettySize=auto;html=1;labelBackgroundColor=none;strokeColor=#E07A5F;fontColor=default;" edge="1" parent="1" source="RW-UJUDKQ9CjGkoTU3uq-2" target="RW-UJUDKQ9CjGkoTU3uq-4">
          <mxGeometry relative="1" as="geometry" />
        </mxCell>
        <mxCell id="RW-UJUDKQ9CjGkoTU3uq-2" value="Input into console" style="rounded=0;whiteSpace=wrap;html=1;labelBackgroundColor=none;fillColor=#F2CC8F;strokeColor=#E07A5F;fontColor=#393C56;" vertex="1" parent="1">
          <mxGeometry x="190" y="100" width="120" height="60" as="geometry" />
        </mxCell>
        <mxCell id="RW-UJUDKQ9CjGkoTU3uq-3" value="" style="edgeStyle=orthogonalEdgeStyle;rounded=0;orthogonalLoop=1;jettySize=auto;html=1;labelBackgroundColor=none;strokeColor=#E07A5F;fontColor=default;" edge="1" parent="1" source="RW-UJUDKQ9CjGkoTU3uq-4" target="RW-UJUDKQ9CjGkoTU3uq-6">
          <mxGeometry relative="1" as="geometry" />
        </mxCell>
        <mxCell id="RW-UJUDKQ9CjGkoTU3uq-4" value="Create Command Object" style="whiteSpace=wrap;html=1;rounded=0;labelBackgroundColor=none;fillColor=#F2CC8F;strokeColor=#E07A5F;fontColor=#393C56;" vertex="1" parent="1">
          <mxGeometry x="390" y="100" width="120" height="60" as="geometry" />
        </mxCell>
        <mxCell id="RW-UJUDKQ9CjGkoTU3uq-5" value="" style="edgeStyle=orthogonalEdgeStyle;rounded=0;orthogonalLoop=1;jettySize=auto;html=1;labelBackgroundColor=none;strokeColor=#E07A5F;fontColor=default;" edge="1" parent="1" source="RW-UJUDKQ9CjGkoTU3uq-6" target="RW-UJUDKQ9CjGkoTU3uq-8">
          <mxGeometry relative="1" as="geometry" />
        </mxCell>
        <mxCell id="RW-UJUDKQ9CjGkoTU3uq-6" value="&lt;div&gt;CommandParser&lt;/div&gt;&lt;div&gt;.parseCommand&lt;/div&gt;" style="whiteSpace=wrap;html=1;rounded=0;labelBackgroundColor=none;fillColor=#F2CC8F;strokeColor=#E07A5F;fontColor=#393C56;" vertex="1" parent="1">
          <mxGeometry x="590" y="100" width="120" height="60" as="geometry" />
        </mxCell>
        <mxCell id="RW-UJUDKQ9CjGkoTU3uq-7" value="" style="edgeStyle=orthogonalEdgeStyle;rounded=0;orthogonalLoop=1;jettySize=auto;html=1;labelBackgroundColor=none;strokeColor=#E07A5F;fontColor=default;" edge="1" parent="1" source="RW-UJUDKQ9CjGkoTU3uq-8" target="RW-UJUDKQ9CjGkoTU3uq-10">
          <mxGeometry relative="1" as="geometry" />
        </mxCell>
        <mxCell id="RW-UJUDKQ9CjGkoTU3uq-8" value="&lt;div&gt;&quot;Edit&quot; &lt;br&gt;&lt;/div&gt;&lt;div&gt;Action&lt;br&gt;&lt;/div&gt;" style="whiteSpace=wrap;html=1;rounded=0;labelBackgroundColor=none;fillColor=#F2CC8F;strokeColor=#E07A5F;fontColor=#393C56;" vertex="1" parent="1">
          <mxGeometry x="790" y="100" width="120" height="60" as="geometry" />
        </mxCell>
        <mxCell id="RW-UJUDKQ9CjGkoTU3uq-9" value="" style="edgeStyle=orthogonalEdgeStyle;rounded=0;orthogonalLoop=1;jettySize=auto;html=1;labelBackgroundColor=none;strokeColor=#E07A5F;fontColor=default;" edge="1" parent="1" source="RW-UJUDKQ9CjGkoTU3uq-10" target="RW-UJUDKQ9CjGkoTU3uq-12">
          <mxGeometry relative="1" as="geometry" />
        </mxCell>
        <mxCell id="RW-UJUDKQ9CjGkoTU3uq-10" value="Prompt for sessionID" style="whiteSpace=wrap;html=1;rounded=0;labelBackgroundColor=none;fillColor=#F2CC8F;strokeColor=#E07A5F;fontColor=#393C56;" vertex="1" parent="1">
          <mxGeometry x="790" y="240" width="120" height="60" as="geometry" />
        </mxCell>
        <mxCell id="RW-UJUDKQ9CjGkoTU3uq-11" value="" style="edgeStyle=orthogonalEdgeStyle;rounded=0;orthogonalLoop=1;jettySize=auto;html=1;labelBackgroundColor=none;strokeColor=#E07A5F;fontColor=default;" edge="1" parent="1" source="RW-UJUDKQ9CjGkoTU3uq-12" target="RW-UJUDKQ9CjGkoTU3uq-13">
          <mxGeometry relative="1" as="geometry" />
        </mxCell>
        <mxCell id="RW-UJUDKQ9CjGkoTU3uq-12" value="&lt;div&gt;CommandParser&lt;/div&gt;&lt;div&gt;.parseArguments&lt;br&gt;&lt;/div&gt;" style="whiteSpace=wrap;html=1;rounded=0;labelBackgroundColor=none;fillColor=#F2CC8F;strokeColor=#E07A5F;fontColor=#393C56;" vertex="1" parent="1">
          <mxGeometry x="590" y="240" width="120" height="60" as="geometry" />
        </mxCell>
        <mxCell id="ZV9XyaC1W3iyiMInXsoU-2" value="" style="edgeStyle=orthogonalEdgeStyle;rounded=0;orthogonalLoop=1;jettySize=auto;html=1;strokeColor=#E07A5F;fontColor=#393C56;fillColor=#F2CC8F;" edge="1" parent="1" source="RW-UJUDKQ9CjGkoTU3uq-13" target="ZV9XyaC1W3iyiMInXsoU-1">
          <mxGeometry relative="1" as="geometry" />
        </mxCell>
        <mxCell id="RW-UJUDKQ9CjGkoTU3uq-13" value="&lt;div&gt;ReadData&lt;/div&gt;.getSessionById" style="whiteSpace=wrap;html=1;rounded=0;labelBackgroundColor=none;fillColor=#F2CC8F;strokeColor=#E07A5F;fontColor=#393C56;" vertex="1" parent="1">
          <mxGeometry x="390" y="240" width="120" height="60" as="geometry" />
        </mxCell>
        <mxCell id="RW-UJUDKQ9CjGkoTU3uq-15" value="" style="edgeStyle=orthogonalEdgeStyle;rounded=0;orthogonalLoop=1;jettySize=auto;html=1;labelBackgroundColor=none;strokeColor=#E07A5F;fontColor=default;startArrow=classic;startFill=1;endArrow=none;endFill=0;" edge="1" parent="1" target="RW-UJUDKQ9CjGkoTU3uq-19">
          <mxGeometry relative="1" as="geometry">
            <mxPoint x="390" y="270" as="sourcePoint" />
          </mxGeometry>
        </mxCell>
        <mxCell id="RW-UJUDKQ9CjGkoTU3uq-19" value="&lt;div&gt;FileHandler&lt;/div&gt;&lt;div&gt;.loadFile&lt;br&gt;&lt;/div&gt;" style="whiteSpace=wrap;html=1;rounded=0;labelBackgroundColor=none;fillColor=#F2CC8F;strokeColor=#E07A5F;fontColor=#393C56;" vertex="1" parent="1">
          <mxGeometry x="190" y="240" width="120" height="60" as="geometry" />
        </mxCell>
        <mxCell id="ZV9XyaC1W3iyiMInXsoU-4" value="" style="edgeStyle=orthogonalEdgeStyle;rounded=0;orthogonalLoop=1;jettySize=auto;html=1;strokeColor=#E07A5F;fontColor=#393C56;fillColor=#F2CC8F;" edge="1" parent="1" source="ZV9XyaC1W3iyiMInXsoU-1" target="ZV9XyaC1W3iyiMInXsoU-3">
          <mxGeometry relative="1" as="geometry" />
        </mxCell>
        <mxCell id="ZV9XyaC1W3iyiMInXsoU-1" value="Prompt for new arguments" style="whiteSpace=wrap;html=1;fillColor=#F2CC8F;strokeColor=#E07A5F;fontColor=#393C56;rounded=0;labelBackgroundColor=none;" vertex="1" parent="1">
          <mxGeometry x="390" y="380" width="120" height="60" as="geometry" />
        </mxCell>
        <mxCell id="ZV9XyaC1W3iyiMInXsoU-11" value="" style="edgeStyle=orthogonalEdgeStyle;rounded=0;orthogonalLoop=1;jettySize=auto;html=1;strokeColor=#E07A5F;fontColor=#393C56;fillColor=#F2CC8F;" edge="1" parent="1" source="ZV9XyaC1W3iyiMInXsoU-3" target="ZV9XyaC1W3iyiMInXsoU-10">
          <mxGeometry relative="1" as="geometry" />
        </mxCell>
        <mxCell id="ZV9XyaC1W3iyiMInXsoU-3" value="&lt;div&gt;CommandParser&lt;/div&gt;&lt;div&gt;.parseArguments&lt;br&gt;&lt;/div&gt;" style="whiteSpace=wrap;html=1;fillColor=#F2CC8F;strokeColor=#E07A5F;fontColor=#393C56;rounded=0;labelBackgroundColor=none;" vertex="1" parent="1">
          <mxGeometry x="390" y="520" width="120" height="60" as="geometry" />
        </mxCell>
        <mxCell id="ZV9XyaC1W3iyiMInXsoU-5" value="" style="edgeStyle=orthogonalEdgeStyle;rounded=0;orthogonalLoop=1;jettySize=auto;html=1;strokeColor=#E07A5F;fontColor=#393C56;fillColor=#F2CC8F;" edge="1" parent="1" target="ZV9XyaC1W3iyiMInXsoU-8">
          <mxGeometry relative="1" as="geometry">
            <mxPoint x="250" y="580" as="sourcePoint" />
          </mxGeometry>
        </mxCell>
        <mxCell id="ZV9XyaC1W3iyiMInXsoU-8" value="Print output to console" style="whiteSpace=wrap;html=1;fillColor=#F2CC8F;strokeColor=#E07A5F;fontColor=#393C56;rounded=0;labelBackgroundColor=none;" vertex="1" parent="1">
          <mxGeometry x="190" y="660" width="120" height="60" as="geometry" />
        </mxCell>
        <mxCell id="ZV9XyaC1W3iyiMInXsoU-10" value="&lt;div&gt;WriteData&lt;/div&gt;&lt;div&gt;.setValueByKey&lt;br&gt;&lt;/div&gt;" style="whiteSpace=wrap;html=1;fillColor=#F2CC8F;strokeColor=#E07A5F;fontColor=#393C56;rounded=0;labelBackgroundColor=none;" vertex="1" parent="1">
          <mxGeometry x="190" y="520" width="120" height="60" as="geometry" />
        </mxCell>
      </root>
    </mxGraphModel>
  </diagram>
  <diagram id="sEprnK8OviXvZ5ley71w" name="List Action program flow">
    <mxGraphModel dx="1434" dy="794" grid="1" gridSize="10" guides="1" tooltips="1" connect="1" arrows="1" fold="1" page="1" pageScale="1" pageWidth="1100" pageHeight="850" math="0" shadow="0">
      <root>
        <mxCell id="0" />
        <mxCell id="1" parent="0" />
        <mxCell id="hd-Ay5JznMmf9d-VwuGW-1" value="" style="edgeStyle=orthogonalEdgeStyle;rounded=0;orthogonalLoop=1;jettySize=auto;html=1;labelBackgroundColor=none;strokeColor=#E07A5F;fontColor=default;" edge="1" parent="1" source="hd-Ay5JznMmf9d-VwuGW-2" target="hd-Ay5JznMmf9d-VwuGW-4">
          <mxGeometry relative="1" as="geometry" />
        </mxCell>
        <mxCell id="hd-Ay5JznMmf9d-VwuGW-2" value="Input into console" style="rounded=0;whiteSpace=wrap;html=1;labelBackgroundColor=none;fillColor=#F2CC8F;strokeColor=#E07A5F;fontColor=#393C56;" vertex="1" parent="1">
          <mxGeometry x="190" y="100" width="120" height="60" as="geometry" />
        </mxCell>
        <mxCell id="hd-Ay5JznMmf9d-VwuGW-3" value="" style="edgeStyle=orthogonalEdgeStyle;rounded=0;orthogonalLoop=1;jettySize=auto;html=1;labelBackgroundColor=none;strokeColor=#E07A5F;fontColor=default;" edge="1" parent="1" source="hd-Ay5JznMmf9d-VwuGW-4" target="hd-Ay5JznMmf9d-VwuGW-6">
          <mxGeometry relative="1" as="geometry" />
        </mxCell>
        <mxCell id="hd-Ay5JznMmf9d-VwuGW-4" value="Create Command Object" style="whiteSpace=wrap;html=1;rounded=0;labelBackgroundColor=none;fillColor=#F2CC8F;strokeColor=#E07A5F;fontColor=#393C56;" vertex="1" parent="1">
          <mxGeometry x="390" y="100" width="120" height="60" as="geometry" />
        </mxCell>
        <mxCell id="hd-Ay5JznMmf9d-VwuGW-5" value="" style="edgeStyle=orthogonalEdgeStyle;rounded=0;orthogonalLoop=1;jettySize=auto;html=1;labelBackgroundColor=none;strokeColor=#E07A5F;fontColor=default;" edge="1" parent="1" source="hd-Ay5JznMmf9d-VwuGW-6" target="hd-Ay5JznMmf9d-VwuGW-8">
          <mxGeometry relative="1" as="geometry" />
        </mxCell>
        <mxCell id="hd-Ay5JznMmf9d-VwuGW-6" value="&lt;div&gt;CommandParser&lt;/div&gt;&lt;div&gt;.parseCommand&lt;/div&gt;" style="whiteSpace=wrap;html=1;rounded=0;labelBackgroundColor=none;fillColor=#F2CC8F;strokeColor=#E07A5F;fontColor=#393C56;" vertex="1" parent="1">
          <mxGeometry x="590" y="100" width="120" height="60" as="geometry" />
        </mxCell>
        <mxCell id="hd-Ay5JznMmf9d-VwuGW-7" value="" style="edgeStyle=orthogonalEdgeStyle;rounded=0;orthogonalLoop=1;jettySize=auto;html=1;labelBackgroundColor=none;strokeColor=#E07A5F;fontColor=default;" edge="1" parent="1" source="hd-Ay5JznMmf9d-VwuGW-8" target="hd-Ay5JznMmf9d-VwuGW-10">
          <mxGeometry relative="1" as="geometry" />
        </mxCell>
        <mxCell id="hd-Ay5JznMmf9d-VwuGW-8" value="&lt;div&gt;&quot;List&quot; &lt;br&gt;&lt;/div&gt;&lt;div&gt;Action&lt;br&gt;&lt;/div&gt;" style="whiteSpace=wrap;html=1;rounded=0;labelBackgroundColor=none;fillColor=#F2CC8F;strokeColor=#E07A5F;fontColor=#393C56;" vertex="1" parent="1">
          <mxGeometry x="790" y="100" width="120" height="60" as="geometry" />
        </mxCell>
        <mxCell id="hd-Ay5JznMmf9d-VwuGW-9" value="" style="edgeStyle=orthogonalEdgeStyle;rounded=0;orthogonalLoop=1;jettySize=auto;html=1;labelBackgroundColor=none;strokeColor=#E07A5F;fontColor=default;" edge="1" parent="1" source="hd-Ay5JznMmf9d-VwuGW-10" target="hd-Ay5JznMmf9d-VwuGW-12">
          <mxGeometry relative="1" as="geometry" />
        </mxCell>
        <mxCell id="hd-Ay5JznMmf9d-VwuGW-10" value="Prompt for Range, keyword, Topic" style="whiteSpace=wrap;html=1;rounded=0;labelBackgroundColor=none;fillColor=#F2CC8F;strokeColor=#E07A5F;fontColor=#393C56;" vertex="1" parent="1">
          <mxGeometry x="790" y="240" width="120" height="60" as="geometry" />
        </mxCell>
        <mxCell id="hd-Ay5JznMmf9d-VwuGW-11" value="" style="edgeStyle=orthogonalEdgeStyle;rounded=0;orthogonalLoop=1;jettySize=auto;html=1;labelBackgroundColor=none;strokeColor=#E07A5F;fontColor=default;" edge="1" parent="1" source="hd-Ay5JznMmf9d-VwuGW-12" target="hd-Ay5JznMmf9d-VwuGW-14">
          <mxGeometry relative="1" as="geometry" />
        </mxCell>
        <mxCell id="hd-Ay5JznMmf9d-VwuGW-12" value="&lt;div&gt;CommandParser&lt;/div&gt;&lt;div&gt;.parseArguments&lt;br&gt;&lt;/div&gt;" style="whiteSpace=wrap;html=1;rounded=0;labelBackgroundColor=none;fillColor=#F2CC8F;strokeColor=#E07A5F;fontColor=#393C56;" vertex="1" parent="1">
          <mxGeometry x="590" y="240" width="120" height="60" as="geometry" />
        </mxCell>
        <mxCell id="hd-Ay5JznMmf9d-VwuGW-13" value="" style="edgeStyle=orthogonalEdgeStyle;rounded=0;orthogonalLoop=1;jettySize=auto;html=1;strokeColor=#E07A5F;fontColor=#393C56;fillColor=#F2CC8F;" edge="1" parent="1" source="hd-Ay5JznMmf9d-VwuGW-14" target="hd-Ay5JznMmf9d-VwuGW-18">
          <mxGeometry relative="1" as="geometry" />
        </mxCell>
        <mxCell id="hd-Ay5JznMmf9d-VwuGW-14" value="&lt;div&gt;SessionListBuilder&lt;/div&gt;&lt;div&gt;.buildList&lt;br&gt;&lt;/div&gt;" style="whiteSpace=wrap;html=1;rounded=0;labelBackgroundColor=none;fillColor=#F2CC8F;strokeColor=#E07A5F;fontColor=#393C56;" vertex="1" parent="1">
          <mxGeometry x="390" y="240" width="120" height="60" as="geometry" />
        </mxCell>
        <mxCell id="hd-Ay5JznMmf9d-VwuGW-17" value="" style="edgeStyle=orthogonalEdgeStyle;rounded=0;orthogonalLoop=1;jettySize=auto;html=1;strokeColor=#E07A5F;fontColor=#393C56;fillColor=#F2CC8F;" edge="1" parent="1" source="hd-Ay5JznMmf9d-VwuGW-18" target="hd-Ay5JznMmf9d-VwuGW-20">
          <mxGeometry relative="1" as="geometry" />
        </mxCell>
        <mxCell id="hd-Ay5JznMmf9d-VwuGW-18" value="OutputFormatter" style="whiteSpace=wrap;html=1;fillColor=#F2CC8F;strokeColor=#E07A5F;fontColor=#393C56;rounded=0;labelBackgroundColor=none;" vertex="1" parent="1">
          <mxGeometry x="390" y="380" width="120" height="60" as="geometry" />
        </mxCell>
        <mxCell id="hd-Ay5JznMmf9d-VwuGW-20" value="Print output to console" style="whiteSpace=wrap;html=1;fillColor=#F2CC8F;strokeColor=#E07A5F;fontColor=#393C56;rounded=0;labelBackgroundColor=none;" vertex="1" parent="1">
          <mxGeometry x="390" y="520" width="120" height="60" as="geometry" />
        </mxCell>
        <mxCell id="hd-Ay5JznMmf9d-VwuGW-25" value="" style="edgeStyle=orthogonalEdgeStyle;rounded=0;orthogonalLoop=1;jettySize=auto;html=1;strokeColor=#E07A5F;fontColor=#393C56;fillColor=#F2CC8F;" edge="1" parent="1" source="hd-Ay5JznMmf9d-VwuGW-24" target="hd-Ay5JznMmf9d-VwuGW-14">
          <mxGeometry relative="1" as="geometry" />
        </mxCell>
        <mxCell id="hd-Ay5JznMmf9d-VwuGW-24" value="&lt;div&gt;ReadData&lt;/div&gt;&lt;div&gt;.getSessionById&lt;br&gt;&lt;/div&gt;" style="whiteSpace=wrap;html=1;fillColor=#F2CC8F;strokeColor=#E07A5F;fontColor=#393C56;rounded=0;labelBackgroundColor=none;" vertex="1" parent="1">
          <mxGeometry x="190" y="240" width="120" height="60" as="geometry" />
        </mxCell>
        <mxCell id="hd-Ay5JznMmf9d-VwuGW-27" value="" style="edgeStyle=orthogonalEdgeStyle;rounded=0;orthogonalLoop=1;jettySize=auto;html=1;strokeColor=#E07A5F;fontColor=#393C56;fillColor=#F2CC8F;" edge="1" parent="1" source="hd-Ay5JznMmf9d-VwuGW-26" target="hd-Ay5JznMmf9d-VwuGW-24">
          <mxGeometry relative="1" as="geometry" />
        </mxCell>
        <mxCell id="hd-Ay5JznMmf9d-VwuGW-26" value="&lt;div&gt;FileHandler&lt;/div&gt;&lt;div&gt;.loadFile&lt;br&gt;&lt;/div&gt;" style="whiteSpace=wrap;html=1;rounded=0;labelBackgroundColor=none;fillColor=#F2CC8F;strokeColor=#E07A5F;fontColor=#393C56;" vertex="1" parent="1">
          <mxGeometry x="190" y="380" width="120" height="60" as="geometry" />
        </mxCell>
      </root>
    </mxGraphModel>
  </diagram>
  <diagram id="jHnos0xalcVMMMYxFVbu" name="FileHandler flow">
    <mxGraphModel dx="1195" dy="662" grid="1" gridSize="10" guides="1" tooltips="1" connect="1" arrows="1" fold="1" page="1" pageScale="1" pageWidth="1100" pageHeight="850" background="none" math="0" shadow="0">
      <root>
        <mxCell id="0" />
        <mxCell id="1" parent="0" />
        <mxCell id="ihbBz_kDCLcfi6El-019-3" value="" style="edgeStyle=orthogonalEdgeStyle;rounded=0;orthogonalLoop=1;jettySize=auto;html=1;labelBackgroundColor=none;strokeColor=#E07A5F;fontColor=default;" edge="1" parent="1" source="ihbBz_kDCLcfi6El-019-1" target="ihbBz_kDCLcfi6El-019-2">
          <mxGeometry relative="1" as="geometry" />
        </mxCell>
        <mxCell id="ihbBz_kDCLcfi6El-019-1" value="&lt;div&gt;FileHandler&lt;/div&gt;&lt;div&gt;.loadFIle&lt;br&gt;&lt;/div&gt;" style="whiteSpace=wrap;html=1;labelBackgroundColor=none;fillColor=#F2CC8F;strokeColor=#E07A5F;fontColor=#393C56;" vertex="1" parent="1">
          <mxGeometry x="500" y="80" width="120" height="60" as="geometry" />
        </mxCell>
        <mxCell id="ihbBz_kDCLcfi6El-019-5" value="True" style="edgeStyle=orthogonalEdgeStyle;rounded=0;orthogonalLoop=1;jettySize=auto;html=1;labelBackgroundColor=none;strokeColor=#E07A5F;fontColor=default;verticalAlign=bottom;" edge="1" parent="1" source="ihbBz_kDCLcfi6El-019-2" target="ihbBz_kDCLcfi6El-019-4">
          <mxGeometry relative="1" as="geometry" />
        </mxCell>
        <mxCell id="ihbBz_kDCLcfi6El-019-7" value="False" style="edgeStyle=orthogonalEdgeStyle;rounded=0;orthogonalLoop=1;jettySize=auto;html=1;labelBackgroundColor=none;strokeColor=#E07A5F;fontColor=default;verticalAlign=bottom;" edge="1" parent="1" source="ihbBz_kDCLcfi6El-019-2" target="ihbBz_kDCLcfi6El-019-6">
          <mxGeometry relative="1" as="geometry" />
        </mxCell>
        <mxCell id="YRRh2PB4_9naphSPxwHT-14" value="" style="edgeStyle=orthogonalEdgeStyle;rounded=0;orthogonalLoop=1;jettySize=auto;html=1;strokeColor=#E07A5F;fontColor=#393C56;fillColor=#F2CC8F;" edge="1" parent="1" source="ihbBz_kDCLcfi6El-019-2" target="YRRh2PB4_9naphSPxwHT-13">
          <mxGeometry relative="1" as="geometry" />
        </mxCell>
        <mxCell id="ihbBz_kDCLcfi6El-019-2" value="checkDataDirectory" style="whiteSpace=wrap;html=1;labelBackgroundColor=none;fillColor=#F2CC8F;strokeColor=#E07A5F;fontColor=#393C56;" vertex="1" parent="1">
          <mxGeometry x="500" y="220" width="120" height="60" as="geometry" />
        </mxCell>
        <mxCell id="YRRh2PB4_9naphSPxwHT-12" value="" style="edgeStyle=orthogonalEdgeStyle;rounded=0;orthogonalLoop=1;jettySize=auto;html=1;strokeColor=#E07A5F;fontColor=#393C56;fillColor=#F2CC8F;startArrow=classic;startFill=1;endArrow=none;endFill=0;" edge="1" parent="1" source="ihbBz_kDCLcfi6El-019-4" target="YRRh2PB4_9naphSPxwHT-11">
          <mxGeometry relative="1" as="geometry" />
        </mxCell>
        <mxCell id="ihbBz_kDCLcfi6El-019-4" value="getDataFile" style="whiteSpace=wrap;html=1;labelBackgroundColor=none;fillColor=#F2CC8F;strokeColor=#E07A5F;fontColor=#393C56;" vertex="1" parent="1">
          <mxGeometry x="300" y="220" width="120" height="60" as="geometry" />
        </mxCell>
        <mxCell id="YRRh2PB4_9naphSPxwHT-8" value="" style="edgeStyle=orthogonalEdgeStyle;rounded=0;orthogonalLoop=1;jettySize=auto;html=1;strokeColor=#E07A5F;fontColor=#393C56;fillColor=#F2CC8F;" edge="1" parent="1" source="ihbBz_kDCLcfi6El-019-6" target="YRRh2PB4_9naphSPxwHT-7">
          <mxGeometry relative="1" as="geometry" />
        </mxCell>
        <mxCell id="ihbBz_kDCLcfi6El-019-6" value="checkDataDirectory" style="whiteSpace=wrap;html=1;labelBackgroundColor=none;fillColor=#F2CC8F;strokeColor=#E07A5F;fontColor=#393C56;" vertex="1" parent="1">
          <mxGeometry x="700" y="220" width="120" height="60" as="geometry" />
        </mxCell>
        <mxCell id="YRRh2PB4_9naphSPxwHT-10" value="" style="edgeStyle=orthogonalEdgeStyle;rounded=0;orthogonalLoop=1;jettySize=auto;html=1;strokeColor=#E07A5F;fontColor=#393C56;fillColor=#F2CC8F;" edge="1" parent="1" source="YRRh2PB4_9naphSPxwHT-7" target="YRRh2PB4_9naphSPxwHT-9">
          <mxGeometry relative="1" as="geometry" />
        </mxCell>
        <mxCell id="YRRh2PB4_9naphSPxwHT-7" value="createDataDirectory" style="whiteSpace=wrap;html=1;fillColor=#F2CC8F;strokeColor=#E07A5F;fontColor=#393C56;labelBackgroundColor=none;" vertex="1" parent="1">
          <mxGeometry x="900" y="220" width="120" height="60" as="geometry" />
        </mxCell>
        <mxCell id="YRRh2PB4_9naphSPxwHT-9" value="createDataFile" style="whiteSpace=wrap;html=1;fillColor=#F2CC8F;strokeColor=#E07A5F;fontColor=#393C56;labelBackgroundColor=none;" vertex="1" parent="1">
          <mxGeometry x="900" y="360" width="120" height="60" as="geometry" />
        </mxCell>
        <mxCell id="YRRh2PB4_9naphSPxwHT-11" value="getDataDirectory" style="whiteSpace=wrap;html=1;fillColor=#F2CC8F;strokeColor=#E07A5F;fontColor=#393C56;labelBackgroundColor=none;" vertex="1" parent="1">
          <mxGeometry x="100" y="220" width="120" height="60" as="geometry" />
        </mxCell>
        <mxCell id="YRRh2PB4_9naphSPxwHT-13" value="return data File" style="whiteSpace=wrap;html=1;fillColor=#F2CC8F;strokeColor=#E07A5F;fontColor=#393C56;labelBackgroundColor=none;" vertex="1" parent="1">
          <mxGeometry x="500" y="360" width="120" height="60" as="geometry" />
        </mxCell>
      </root>
    </mxGraphModel>
  </diagram>
  <diagram id="q9hTGYKQzoRObnXuZ9Mt" name="WriteData flow">
    <mxGraphModel dx="1434" dy="794" grid="1" gridSize="10" guides="1" tooltips="1" connect="1" arrows="1" fold="1" page="1" pageScale="1" pageWidth="1100" pageHeight="850" math="0" shadow="0">
      <root>
        <mxCell id="0" />
        <mxCell id="1" parent="0" />
        <mxCell id="iSdhKZAwcUDdom38agy0-1" value="" style="whiteSpace=wrap;html=1;strokeColor=#E07A5F;fontColor=#393C56;fillColor=#F2CC8F;" vertex="1" parent="1">
          <mxGeometry x="520" y="80" width="120" height="60" as="geometry" />
        </mxCell>
      </root>
    </mxGraphModel>
  </diagram>
</mxfile>
